# xmcd CD database file
#
# Track frame offsets:
#	150
#	13940
#	27935
#	41510
#	55565
#	69110
#	81745
#	95385
#
# Disc length: 1456 seconds
#
# Revision: 0
# Processed by: cddbd v1.5.1PL0 Copyright (c) Steve Scherf et al.
# Submitted via: CDex 1.51
#
DISCID=5d05ae08
DTITLE=Charlie Parker - Charlie Parker
DYEAR=1953
DGENRE=Jazz
TTITLE0=Now's The Time
TTITLE1=I Remember You
TTITLE2=Confirmation
TTITLE3=Chi Chi
TTITLE4=The Song Is You
TTITLE5=Laird Baird
TTITLE6=Kim
TTITLE7=Cosmic Rays
EXTD=YEAR: 1953
EXTT0=
EXTT1=
EXTT2=
EXTT3=
EXTT4=
EXTT5=
EXTT6=
EXTT7=
PLAYORDER=
